<svg width="1080" height="1080" viewBox="0 0 1080 1080" fill="none" xmlns="http://www.w3.org/2000/svg">
<mask id="mask0_245_728" style="mask-type:alpha" maskUnits="userSpaceOnUse" x="29" y="28" width="1023" height="1023">
<path d="M29 436.869C29 293.751 29 222.193 56.8525 167.529C81.3523 119.445 120.445 80.3523 168.529 55.8525C223.193 28 294.751 28 437.869 28H643.131C786.249 28 857.807 28 912.471 55.8525C960.555 80.3523 999.648 119.445 1024.15 167.529C1052 222.193 1052 293.751 1052 436.869V642.131C1052 785.249 1052 856.807 1024.15 911.471C999.648 959.555 960.555 998.648 912.471 1023.15C857.807 1051 786.249 1051 643.131 1051H437.869C294.751 1051 223.193 1051 168.529 1023.15C120.445 998.648 81.3523 959.555 56.8525 911.471C29 856.807 29 785.249 29 642.131V436.869Z" fill="url(#paint0_linear_245_728)"/>
</mask>
<g mask="url(#mask0_245_728)">
<path d="M29 436.869C29 293.751 29 222.193 56.8525 167.529C81.3523 119.445 120.445 80.3523 168.529 55.8525C223.193 28 294.751 28 437.869 28H643.131C786.249 28 857.807 28 912.471 55.8525C960.555 80.3523 999.648 119.445 1024.15 167.529C1052 222.193 1052 293.751 1052 436.869V642.131C1052 785.249 1052 856.807 1024.15 911.471C999.648 959.555 960.555 998.648 912.471 1023.15C857.807 1051 786.249 1051 643.131 1051H437.869C294.751 1051 223.193 1051 168.529 1023.15C120.445 998.648 81.3523 959.555 56.8525 911.471C29 856.807 29 785.249 29 642.131V436.869Z" fill="url(#paint1_linear_245_728)"/>
<path d="M838.708 378.845L691.416 446.712L686.406 846.606C686.406 869.994 668.036 904.729 652.338 911.341C787.807 911.341 834.032 797.533 838.708 740.107V378.845Z" fill="url(#paint2_linear_245_728)"/>
<path d="M691.416 313.067L838.708 378.846L691.416 446.713L542.119 378.846L691.416 313.067Z" fill="white"/>
<path d="M541.848 242.604L403.574 309.767V670.379C403.574 713.777 423.328 770.607 494.816 770.607C523.976 770.607 541.848 758.207 541.848 739.608C541.848 721.009 541.848 600.117 541.848 600.117V242.604Z" fill="url(#paint3_linear_245_728)"/>
<path d="M403.653 177.403L541.848 242.554L403.653 309.773L263.577 242.554L403.653 177.403Z" fill="white"/>
<path d="M264.415 239.158C264.415 239.158 258.675 638.706 264.415 714.497C270.155 790.289 309.587 852.537 381.431 876.772" stroke="url(#paint4_linear_245_728)" stroke-width="2.95248"/>
<path fill-rule="evenodd" clip-rule="evenodd" d="M282.891 192.977L263.843 6.1593L244.796 192.977L152.901 127.959L217.858 219.935L-9.77448 238.998L217.858 258.06L174.16 328.768L244.796 285.018L263.576 596.159V242.604L317.124 268.275L309.828 258.06L471.234 238.998L309.828 219.935L402.589 100.157L282.891 192.977Z" fill="white"/>
</g>
<defs>
<linearGradient id="paint0_linear_245_728" x1="29" y1="28" x2="1052" y2="1051" gradientUnits="userSpaceOnUse">
<stop stop-color="#00A3FF"/>
<stop offset="1" stop-color="#0400B4"/>
</linearGradient>
<linearGradient id="paint1_linear_245_728" x1="29" y1="28" x2="1052" y2="1051" gradientUnits="userSpaceOnUse">
<stop stop-color="#00A3FF"/>
<stop offset="1" stop-color="#0400B4"/>
</linearGradient>
<linearGradient id="paint2_linear_245_728" x1="745.523" y1="414.219" x2="745.523" y2="911.341" gradientUnits="userSpaceOnUse">
<stop stop-color="white" stop-opacity="0.89"/>
<stop offset="1" stop-color="white" stop-opacity="0.24"/>
</linearGradient>
<linearGradient id="paint3_linear_245_728" x1="472.711" y1="277.68" x2="472.711" y2="770.607" gradientUnits="userSpaceOnUse">
<stop stop-color="white" stop-opacity="0.89"/>
<stop offset="1" stop-color="white" stop-opacity="0.24"/>
</linearGradient>
<linearGradient id="paint4_linear_245_728" x1="264.415" y1="239.158" x2="400.863" y2="888.802" gradientUnits="userSpaceOnUse">
<stop offset="0.487631" stop-color="white"/>
<stop offset="0.925726" stop-color="white" stop-opacity="0"/>
</linearGradient>
</defs>
</svg>
