<svg width="2732" height="1080" viewBox="0 0 2732 1080" fill="none" xmlns="http://www.w3.org/2000/svg">
<path d="M892.583 610.039V440.785H948.911V596.228C948.911 608.324 951.89 619.337 957.848 629.266C963.805 639.196 971.749 647.139 981.679 653.097C991.608 658.874 1002.53 661.763 1014.45 661.763C1026.54 661.763 1037.46 658.874 1047.21 653.097C1057.14 647.139 1065 639.196 1070.77 629.266C1076.73 619.337 1079.71 608.324 1079.71 596.228V440.785H1136.04L1136.31 711.591H1079.98L1079.71 682.344C1070.5 693.537 1059.04 702.384 1045.32 708.883C1031.6 715.382 1016.88 718.632 1001.18 718.632C981.137 718.632 962.903 713.758 946.474 704.009C930.045 694.26 916.956 681.171 907.207 664.742C897.458 648.313 892.583 630.079 892.583 610.039Z" fill="white"/>
<path d="M1176.49 711.591V305.382H1232.81V711.591H1176.49Z" fill="white"/>
<path d="M1424.34 497.113H1367.48L1367.2 711.591H1310.88L1311.15 497.113H1268.09V440.785H1311.15L1310.88 355.752H1367.2L1367.48 440.785H1424.34V497.113Z" fill="white"/>
<path d="M1456.58 711.591V440.785H1512.91V469.491C1522.29 458.297 1533.85 449.451 1547.57 442.952C1561.29 436.452 1576.09 433.203 1591.98 433.203C1602.09 433.203 1612.11 434.557 1622.04 437.265L1599.56 494.134C1592.52 491.426 1585.48 490.072 1578.44 490.072C1566.53 490.072 1555.6 493.051 1545.67 499.009C1535.74 504.786 1527.8 512.639 1521.84 522.569C1515.89 532.498 1512.91 543.511 1512.91 555.607V711.591H1456.58Z" fill="white"/>
<path d="M1835.08 440.785H1891.41V711.591H1834.81L1832.64 672.324C1824.7 686.226 1813.96 697.419 1800.42 705.904C1786.88 714.389 1770.9 718.632 1752.49 718.632C1732.63 718.632 1713.94 714.931 1696.43 707.529C1678.92 699.947 1663.48 689.475 1650.12 676.116C1636.94 662.756 1626.65 647.41 1619.25 630.079C1611.85 612.566 1608.15 593.791 1608.15 573.751C1608.15 554.434 1611.76 536.29 1618.98 519.319C1626.2 502.168 1636.22 487.183 1649.04 474.365C1661.86 461.547 1676.66 451.527 1693.45 444.306C1710.42 436.904 1728.56 433.203 1747.88 433.203C1767.56 433.203 1784.89 437.716 1799.88 446.743C1815.04 455.589 1827.59 466.963 1837.52 480.865L1835.08 440.785ZM1751.13 664.2C1767.02 664.2 1780.92 660.319 1792.84 652.555C1804.75 644.612 1813.96 633.96 1820.46 620.6C1827.14 607.241 1830.48 592.437 1830.48 576.188C1830.48 559.759 1827.14 544.865 1820.46 531.505C1813.78 518.146 1804.48 507.584 1792.56 499.821C1780.83 491.877 1767.02 487.906 1751.13 487.906C1735.42 487.906 1721.07 491.877 1708.07 499.821C1695.07 507.765 1684.78 518.416 1677.2 531.776C1669.62 545.136 1665.83 559.94 1665.83 576.188C1665.83 592.617 1669.71 607.511 1677.47 620.871C1685.42 634.05 1695.8 644.612 1708.61 652.555C1721.61 660.319 1735.79 664.2 1751.13 664.2Z" fill="white"/>
<mask id="mask0_245_804" style="mask-type:alpha" maskUnits="userSpaceOnUse" x="42" y="191" width="697" height="697">
<path d="M42 469.613C42 372.156 42 323.427 60.9664 286.204C77.6497 253.461 104.27 226.84 137.013 210.157C174.237 191.19 222.965 191.19 320.422 191.19H460.197C557.654 191.19 606.382 191.19 643.606 210.157C676.349 226.84 702.97 253.461 719.653 286.204C738.619 323.427 738.619 372.156 738.619 469.613V609.387C738.619 706.844 738.619 755.573 719.653 792.796C702.97 825.539 676.349 852.16 643.606 868.843C606.382 887.81 557.654 887.81 460.197 887.81H320.422C222.965 887.81 174.237 887.81 137.013 868.843C104.27 852.16 77.6497 825.539 60.9664 792.796C42 755.573 42 706.844 42 609.387V469.613Z" fill="url(#paint0_linear_245_804)"/>
</mask>
<g mask="url(#mask0_245_804)">
<path d="M42 469.613C42 372.156 42 323.427 60.9664 286.204C77.6497 253.461 104.27 226.84 137.013 210.157C174.237 191.19 222.965 191.19 320.422 191.19H460.197C557.654 191.19 606.382 191.19 643.606 210.157C676.349 226.84 702.97 253.461 719.653 286.204C738.619 323.427 738.619 372.156 738.619 469.613V609.387C738.619 706.844 738.619 755.573 719.653 792.796C702.97 825.539 676.349 852.16 643.606 868.843C606.382 887.81 557.654 887.81 460.197 887.81H320.422C222.965 887.81 174.237 887.81 137.013 868.843C104.27 852.16 77.6497 825.539 60.9664 792.796C42 755.573 42 706.844 42 609.387V469.613Z" fill="url(#paint1_linear_245_804)"/>
<path d="M593.376 430.101L493.077 476.315L489.665 748.626C489.665 764.553 477.156 788.205 466.466 792.708C558.715 792.708 590.192 715.21 593.376 676.105V430.101Z" fill="url(#paint2_linear_245_804)"/>
<path d="M493.077 385.309L593.376 430.102L493.077 476.316L391.412 430.102L493.077 385.309Z" fill="white"/>
<path d="M391.228 337.327L297.069 383.062V628.623C297.069 658.175 310.52 696.874 359.201 696.874C379.058 696.874 391.228 688.43 391.228 675.765C391.228 663.1 391.228 580.777 391.228 580.777V337.327Z" fill="url(#paint3_linear_245_804)"/>
<path d="M297.122 292.927L391.228 337.292L297.122 383.065L201.737 337.292L297.122 292.927Z" fill="white"/>
<path d="M202.307 334.98C202.307 334.98 198.399 607.055 202.307 658.666C206.216 710.276 233.068 752.665 281.99 769.168" stroke="url(#paint4_linear_245_804)" stroke-width="2.01051"/>
<path fill-rule="evenodd" clip-rule="evenodd" d="M214.889 303.533L201.918 176.318L188.948 303.533L126.371 259.258L170.604 321.89L15.5962 334.871L170.604 347.851L140.848 396L188.948 366.209L201.736 578.084V337.326L238.2 354.807L233.232 347.851L343.143 334.871L233.232 321.89L296.398 240.326L214.889 303.533Z" fill="white"/>
</g>
<rect x="1973.6" y="432.816" width="716.402" height="285.43" rx="45.2167" fill="white"/>
<path d="M2141.12 491.244H2180.45L2122.06 584.025V660.157H2088.76V584.025L2030.36 491.244H2069.69L2105.41 547.83L2141.12 491.244Z" fill="#0F1823"/>
<path d="M2191.63 660.157V491.244H2224.93V660.157H2191.63Z" fill="#0F1823"/>
<path d="M2250.29 660.157V491.244H2357.18V524.544H2283.59V553.018H2341.02V586.318H2283.59V626.857H2357.18V660.157H2250.29Z" fill="#0F1823"/>
<path d="M2376.66 660.157V491.244H2409.96V626.857H2478.01V660.157H2376.66Z" fill="#0F1823"/>
<path d="M2497.38 660.157V491.244H2553.36C2565.02 491.244 2575.92 493.456 2586.06 497.88C2596.27 502.223 2605.24 508.296 2612.96 516.098C2620.77 523.82 2626.84 532.788 2631.18 543.004C2635.61 553.139 2637.82 564.037 2637.82 575.7C2637.82 587.364 2635.61 598.303 2631.18 608.518C2626.84 618.653 2620.77 627.621 2612.96 635.423C2605.24 643.145 2596.27 649.218 2586.06 653.642C2575.92 657.985 2565.02 660.157 2553.36 660.157H2497.38ZM2530.68 626.857H2553.36C2560.28 626.857 2566.79 625.53 2572.91 622.876C2579.1 620.221 2584.57 616.561 2589.32 611.896C2594.06 607.231 2597.76 601.802 2600.42 595.608C2603.15 589.415 2604.52 582.779 2604.52 575.7C2604.52 568.622 2603.15 562.027 2600.42 555.914C2597.76 549.72 2594.06 544.291 2589.32 539.625C2584.65 534.88 2579.22 531.18 2573.03 528.525C2566.91 525.871 2560.36 524.544 2553.36 524.544H2530.68V626.857Z" fill="#0F1823"/>
<defs>
<linearGradient id="paint0_linear_245_804" x1="42" y1="191.19" x2="738.619" y2="887.81" gradientUnits="userSpaceOnUse">
<stop stop-color="#00A3FF"/>
<stop offset="1" stop-color="#0400B4"/>
</linearGradient>
<linearGradient id="paint1_linear_245_804" x1="42" y1="191.19" x2="738.619" y2="887.81" gradientUnits="userSpaceOnUse">
<stop stop-color="#00A3FF"/>
<stop offset="1" stop-color="#0400B4"/>
</linearGradient>
<linearGradient id="paint2_linear_245_804" x1="529.921" y1="454.189" x2="529.921" y2="792.708" gradientUnits="userSpaceOnUse">
<stop stop-color="white" stop-opacity="0.89"/>
<stop offset="1" stop-color="white" stop-opacity="0.24"/>
</linearGradient>
<linearGradient id="paint3_linear_245_804" x1="344.148" y1="361.212" x2="344.148" y2="696.874" gradientUnits="userSpaceOnUse">
<stop stop-color="white" stop-opacity="0.89"/>
<stop offset="1" stop-color="white" stop-opacity="0.24"/>
</linearGradient>
<linearGradient id="paint4_linear_245_804" x1="202.307" y1="334.98" x2="295.223" y2="777.36" gradientUnits="userSpaceOnUse">
<stop offset="0.487631" stop-color="white"/>
<stop offset="0.925726" stop-color="white" stop-opacity="0"/>
</linearGradient>
</defs>
</svg>
